<?xml version="1.0" encoding="UTF-8" standalone="no" ?>
<!DOCTYPE svg PUBLIC "-//W3C//DTD SVG 1.1//EN" "http://www.w3.org/Graphics/SVG/1.1/DTD/svg11.dtd">
<svg xmlns="http://www.w3.org/2000/svg" xmlns:xlink="http://www.w3.org/1999/xlink" version="1.1" width="240.59" height="240.59" xml:space="preserve">
<desc>Created with Fabric.js 1.6.0-rc.1</desc>
<defs></defs>
<g style="stroke: none; stroke-width: 1; stroke-dasharray: none; stroke-linecap: butt; stroke-linejoin: miter; stroke-miterlimit: 10; fill: none; fill-rule: nonzero; opacity: 1;" transform="translate(10 10) scale(0.43 0.43)" >
  <circle cx="256" cy="256" r="256" style="stroke: none; stroke-width: 1; stroke-dasharray: none; stroke-linecap: butt; stroke-linejoin: miter; stroke-miterlimit: 10; fill: #C8C8AA; fill-rule: nonzero; opacity: 1;" transform="  matrix(1 0 0 1 0 0) "/>
  <path d="M 475.394 124.048 c -18.114 -30.053 -42.255 -56.034 -70.71 -76.379 C 396.79 72.646 400 120 384 120 c -11.314 0 -11.351 -68.649 -24 -56 c -8 8 -8 104 -24 104 s -8 -24 -24 -24 s -40 128 -40 128 v 24 c 0 0 48 8 72 0 s 112 -72 112 -72 S 468.424 161.877 475.394 124.048 z" style="stroke: none; stroke-width: 1; stroke-dasharray: none; stroke-linecap: butt; stroke-linejoin: miter; stroke-miterlimit: 10; fill: #b5b088; fill-rule: nonzero; opacity: 1;" transform=" matrix(1 0 0 1 0 0) " stroke-linecap="round" />
  <polygon points="345.33,144 328,196 362.67,196 " style="stroke: none; stroke-width: 1; stroke-dasharray: none; stroke-linecap: butt; stroke-linejoin: miter; stroke-miterlimit: 10; fill: #5AA07E; fill-rule: nonzero; opacity: 0;" transform="  matrix(1 0 0 1 0 0) "/>
  <rect x="342.44" y="196" rx="0" ry="0" width="5.78" height="52" style="stroke: none; stroke-width: 1; stroke-dasharray: none; stroke-linecap: butt; stroke-linejoin: miter; stroke-miterlimit: 10; fill: #5F4648; fill-rule: nonzero; opacity: 0;" transform=" matrix(1 0 0 1 0 0) "/>
  <polygon points="345.33,144 339.56,161.33 351.11,196 362.67,196 " style="stroke: none; stroke-width: 1; stroke-dasharray: none; stroke-linecap: butt; stroke-linejoin: miter; stroke-miterlimit: 10; fill: #6DB195; fill-rule: nonzero; opacity: 0;" transform="  matrix(1 0 0 1 0 0) "/>
  <polygon points="416,80 392,152 440,152 " style="stroke: none; stroke-width: 1; stroke-dasharray: none; stroke-linecap: butt; stroke-linejoin: miter; stroke-miterlimit: 10; fill: #5AA07E; fill-rule: nonzero; opacity: 0;" transform="  matrix(1 0 0 1 0 0) "/>
  <rect x="412" y="152" rx="0" ry="0" width="8" height="72" style="stroke: none; stroke-width: 1; stroke-dasharray: none; stroke-linecap: butt; stroke-linejoin: miter; stroke-miterlimit: 10; fill: #5F4648; fill-rule: nonzero; opacity: 0;" transform=" matrix(1 0 0 1 0 0) "/>
  <polygon points="416,80 408,104 424,152 440,152 " style="stroke: none; stroke-width: 1; stroke-dasharray: none; stroke-linecap: butt; stroke-linejoin: miter; stroke-miterlimit: 10; fill: #6DB195; fill-rule: nonzero; opacity: 0;" transform="  matrix(1 0 0 1 0 0) "/>
  <polygon points="384,64 360,136 408,136 " style="stroke: none; stroke-width: 1; stroke-dasharray: none; stroke-linecap: butt; stroke-linejoin: miter; stroke-miterlimit: 10; fill: #5AA07E; fill-rule: nonzero; opacity: 0;" transform="  matrix(1 0 0 1 0 0) "/>
  <rect x="380" y="136" rx="0" ry="0" width="8" height="72" style="stroke: none; stroke-width: 1; stroke-dasharray: none; stroke-linecap: butt; stroke-linejoin: miter; stroke-miterlimit: 10; fill: #5F4648; fill-rule: nonzero; opacity: 0;" transform=" matrix(1 0 0 1 0 0) "/>
  <polygon points="384,64 376,88 392,136 408,136 " style="stroke: none; stroke-width: 1; stroke-dasharray: none; stroke-linecap: butt; stroke-linejoin: miter; stroke-miterlimit: 10; fill: #6DB195; fill-rule: nonzero; opacity: 0;" transform="  matrix(1 0 0 1 0 0) "/>
  <path d="M 0.217 247.428 C 55.261 264.277 240 296 240 296 s -8 -184 -24 -192 s -21.881 85.06 -32 80 c -16 -8 1.803 -134.255 -16 -136 c -17 -1.667 -16 64 -40 56 c -7.589 -2.53 -12.13 -28.893 -17.484 -58.607 C 45.958 90.074 2.979 163.644 0.217 247.428 z" style="stroke: none; stroke-width: 1; stroke-dasharray: none; stroke-linecap: butt; stroke-linejoin: miter; stroke-miterlimit: 10; fill: #b5b088; fill-rule: nonzero; opacity: 1;" transform=" matrix(1 0 0 1 0 0) " stroke-linecap="round" />
  <polygon points="88,80 64,152 112,152 " style="stroke: none; stroke-width: 1; stroke-dasharray: none; stroke-linecap: butt; stroke-linejoin: miter; stroke-miterlimit: 10; fill: #5AA07E; fill-rule: nonzero; opacity: 0;" transform="  matrix(1 0 0 1 0 0) "/>
  <rect x="84" y="152" rx="0" ry="0" width="8" height="48" style="stroke: none; stroke-width: 1; stroke-dasharray: none; stroke-linecap: butt; stroke-linejoin: miter; stroke-miterlimit: 10; fill: #5F4648; fill-rule: nonzero; opacity: 0;" transform=" matrix(1 0 0 1 0 0) "/>
  <polygon points="88,80 80,104 96,152 112,152 " style="stroke: none; stroke-width: 1; stroke-dasharray: none; stroke-linecap: butt; stroke-linejoin: miter; stroke-miterlimit: 10; fill: #6DB195; fill-rule: nonzero; opacity: 0;" transform="  matrix(1 0 0 1 0 0) "/>
  <polygon points="128,72 96,184 160,184 " style="stroke: none; stroke-width: 1; stroke-dasharray: none; stroke-linecap: butt; stroke-linejoin: miter; stroke-miterlimit: 10; fill: #5AA07E; fill-rule: nonzero; opacity: 0;" transform="  matrix(1 0 0 1 0 0) "/>
  <rect x="124" y="184" rx="0" ry="0" width="8" height="32" style="stroke: none; stroke-width: 1; stroke-dasharray: none; stroke-linecap: butt; stroke-linejoin: miter; stroke-miterlimit: 10; fill: #5F4648; fill-rule: nonzero; opacity: 0;" transform=" matrix(1 0 0 1 0 0) "/>
  <polygon points="128,72 120,100 144,184 160,184 " style="stroke: none; stroke-width: 1; stroke-dasharray: none; stroke-linecap: butt; stroke-linejoin: miter; stroke-miterlimit: 10; fill: #6DB195; fill-rule: nonzero; opacity: 0;" transform="  matrix(1 0 0 1 0 0) "/>
  <path d="M 243.68 0.312 L 232 304 h 48 L 268.32 0.312 C 264.236 0.118 260.132 0 256 0 S 247.764 0.118 243.68 0.312 z" style="stroke: none; stroke-width: 1; stroke-dasharray: none; stroke-linecap: butt; stroke-linejoin: miter; stroke-miterlimit: 10; fill: #a2e2f2; fill-rule: nonzero; opacity: 1;" transform=" matrix(1 0 0 1 0 0) " stroke-linecap="round" />
  <rect x="224" y="288" rx="0" ry="0" width="76" height="112" style="stroke: none; stroke-width: 1; stroke-dasharray: none; stroke-linecap: butt; stroke-linejoin: miter; stroke-miterlimit: 10; fill: #a2e2f2; fill-rule: nonzero; opacity: 1;" transform=" matrix(1 0 0 1 0 0) "/>
  <path d="M 224 288 v 73 c 10.333 0 15.341 -12.008 14.667 -39.667 C 238 294 254 299 254 309 c 0 8 1.333 34 10 34 c 11.314 0 5.067 -21.357 17.667 -23 C 297 318 298 342 298 342 v -54 H 224 z" style="stroke: none; stroke-width: 1; stroke-dasharray: none; stroke-linecap: butt; stroke-linejoin: miter; stroke-miterlimit: 10; fill: #98c7e3; fill-rule: nonzero; opacity: 1;" transform=" matrix(1 0 0 1 0 0) " stroke-linecap="round" />
  <path d="M 297.928 282.735 c 1.385 -4.199 2.967 -8.308 4.734 -12.318 v -29.594 h 10.335 v 10.408 c 4.782 -7.404 10.252 -14.321 16.322 -20.66 c -0.269 -0.043 -0.539 -0.083 -0.82 -0.083 H 177 c -0.18 0 -0.35 0.035 -0.525 0.053 c 8.777 3.849 16.553 9.548 22.838 16.611 v -6.329 h 10.335 v 21.907 c 2.771 5.835 4.706 12.142 5.662 18.766 c 9.68 -12.524 24.612 -20.004 40.845 -20.004 C 272.912 261.493 288.288 269.469 297.928 282.735 z M 219.982 262.922 v -22.099 h 10.335 v 15.502 c 0 0.158 0.076 0.292 0.09 0.446 C 226.72 258.45 223.265 260.557 219.982 262.922 z M 240.652 253.192 v -12.369 h 10.335 v 10.335 c 0 0.125 0.062 0.229 0.071 0.351 C 247.513 251.798 244.031 252.326 240.652 253.192 z M 271.657 253.192 c -3.38 -0.868 -6.861 -1.393 -10.406 -1.683 c 0.009 -0.123 0.071 -0.227 0.071 -0.352 v -10.335 h 10.335 V 253.192 z M 292.327 262.922 c -3.282 -2.365 -6.736 -4.469 -10.421 -6.148 c 0.013 -0.146 0.085 -0.271 0.085 -0.421 v -15.53 h 10.336 V 262.922 z" style="stroke: none; stroke-width: 1; stroke-dasharray: none; stroke-linecap: butt; stroke-linejoin: miter; stroke-miterlimit: 10; fill: #5F4648; fill-rule: nonzero; opacity: 0;" transform=" matrix(1 0 0 1 0 0) " stroke-linecap="round" />
  <path d="M 80 184 c -35.235 -11.745 -44.602 -23.516 -53.422 -41.59 C 9.595 176.645 0 215.193 0 256 c 0 53.401 16.37 102.97 44.338 144 H 224 V 288 C 208 224 128 200 80 184 z" style="stroke: none; stroke-width: 1; stroke-dasharray: none; stroke-linecap: butt; stroke-linejoin: miter; stroke-miterlimit: 10; fill: #61ad85; fill-rule: nonzero; opacity: 1;" transform=" matrix(1 0 0 1 0 0) " stroke-linecap="round" />
  <path d="M 440 120 c -8 24 -10.774 61.071 -66.5 78 C 334 210 288 260 288 326 c 0 32 0 74 0 74 h 179.662 C 495.63 358.97 512 309.401 512 256 c 0 -60.612 -21.11 -116.266 -56.318 -160.117 C 448.245 104.744 442.23 113.31 440 120 z" style="stroke: none; stroke-width: 1; stroke-dasharray: none; stroke-linecap: butt; stroke-linejoin: miter; stroke-miterlimit: 10; fill: #61ad85; fill-rule: nonzero; opacity: 1;" transform=" matrix(1 0 0 1 0 0) " stroke-linecap="round" />
  <path d="M 88 264 c -40.203 6.91 -72 -6 -85.248 -44.85 C 1.008 231.192 0 243.473 0 256 c 0 53.401 16.37 102.97 44.338 144 H 216 c 0 0 -18 -37 -16 -88 C 201.567 272.031 152 253 88 264 z" style="stroke: none; stroke-width: 1; stroke-dasharray: none; stroke-linecap: butt; stroke-linejoin: miter; stroke-miterlimit: 10; fill: #63967a; fill-rule: nonzero; opacity: 1;" transform=" matrix(1 0 0 1 0 0) " stroke-linecap="round" />
  <path d="M 307.942 400 h 159.72 C 495.63 358.97 512 309.401 512 256 c 0 -34.138 -6.699 -66.702 -18.839 -96.472 C 473.312 172.264 456.704 191.778 450 232 c -10 60 -84 14 -110 42 C 321 294.462 311.62 364.011 307.942 400 z" style="stroke: none; stroke-width: 1; stroke-dasharray: none; stroke-linecap: butt; stroke-linejoin: miter; stroke-miterlimit: 10; fill: #63967a; fill-rule: nonzero; opacity: 1;" transform=" matrix(1 0 0 1 0 0) " stroke-linecap="round" />
  <path d="M 144 360 c -48 8 -48 -24 -88 -16 c -11.691 2.338 -22.589 12.865 -31.388 21.435 C 30.327 377.49 36.886 389.067 44.338 400 H 200 C 200 400 176.536 354.577 144 360 z" style="stroke: none; stroke-width: 1; stroke-dasharray: none; stroke-linecap: butt; stroke-linejoin: miter; stroke-miterlimit: 10; fill: #737367; fill-rule: nonzero; opacity: 1;" transform=" matrix(1 0 0 1 0 0) " stroke-linecap="round" />
  <path d="M 511.046 277.539 C 464 280 479.598 306.343 440 312 c -56 8 -40 48 -72 48 s -40 40 -40 40 h 139.662 C 491.828 364.548 507.276 322.705 511.046 277.539 z" style="stroke: none; stroke-width: 1; stroke-dasharray: none; stroke-linecap: butt; stroke-linejoin: miter; stroke-miterlimit: 10; fill: #737367; fill-rule: nonzero; opacity: 1;" transform=" matrix(1 0 0 1 0 0) " stroke-linecap="round" />
  <path d="M 44.338 400 C 90.418 467.601 168.017 512 256 512 s 165.582 -44.399 211.662 -112 H 44.338 z" style="stroke: none; stroke-width: 1; stroke-dasharray: none; stroke-linecap: butt; stroke-linejoin: miter; stroke-miterlimit: 10; fill: #3f8acc; fill-rule: nonzero; opacity: 1;" transform=" matrix(1 0 0 1 0 0) " stroke-linecap="round" />
  <path d="M 364 400 H 148 c -6.627 0 -12 5.373 -12 12 s 5.373 12 12 12 h 44.734 c -0.447 1.257 -0.734 2.59 -0.734 4 c 0 6.627 5.373 12 12 12 h 20.734 c -0.447 1.257 -0.734 2.59 -0.734 4 c 0 6.627 5.373 12 12 12 h 48 c 6.627 0 12 -5.373 12 -12 c 0 -1.41 -0.288 -2.743 -0.734 -4 H 340 c 6.627 0 12 -5.373 12 -12 c 0 -1.41 -0.288 -2.743 -0.734 -4 H 364 c 6.627 0 12 -5.373 12 -12 S 370.627 400 364 400 z" style="stroke: none; stroke-width: 1; stroke-dasharray: none; stroke-linecap: butt; stroke-linejoin: miter; stroke-miterlimit: 10; fill: #6c90eb; fill-rule: nonzero; opacity: 1;" transform=" matrix(1 0 0 1 0 0) " stroke-linecap="round" />
  <path d="M 299 396 c -2.671 0 -5.114 0.902 -7.108 2.378 c -2.304 -5.934 -8.033 -10.158 -14.782 -10.158 c -2.484 0 -4.805 0.62 -6.899 1.637 C 266.921 386.279 262.243 384 257 384 c -6.01 0 -11.298 2.975 -14.567 7.501 c -1.956 -0.935 -4.12 -1.501 -6.433 -1.501 c -5.057 0 -9.508 2.521 -12.225 6.354 C 222.88 396.142 221.959 396 221 396 c -6.627 0 -12 5.372 -12 12 h 102 C 311 401.372 305.627 396 299 396 z" style="stroke: none; stroke-width: 1; stroke-dasharray: none; stroke-linecap: butt; stroke-linejoin: miter; stroke-miterlimit: 10; fill: #FFFFFF; fill-rule: nonzero; opacity: 1;" transform=" matrix(1 0 0 1 0 0) " stroke-linecap="round" />
  <path d="M 288.173 2.084 C 288.782 23.843 291.535 89.768 304 96 c 7.155 3.578 13.881 -45.06 24 -40 c 16 8 27.114 -32.415 28.613 -35.445 C 335.154 11.373 312.174 5.096 288.173 2.084 z" style="stroke: none; stroke-width: 1; stroke-dasharray: none; stroke-linecap: butt; stroke-linejoin: miter; stroke-miterlimit: 10; fill: #b5b088; fill-rule: nonzero; opacity: 1;" transform=" matrix(1 0 0 1 0 0) " stroke-linecap="round" />
  <path d="M 188.691 9.005 C 196.674 22.07 203.567 50.703 208 64 c 6.751 20.252 19.199 -30.16 27.729 -63.127 C 219.582 2.14 203.857 4.882 188.691 9.005 z" style="stroke: none; stroke-width: 1; stroke-dasharray: none; stroke-linecap: butt; stroke-linejoin: miter; stroke-miterlimit: 10; fill: #b5b088; fill-rule: nonzero; opacity: 1;" transform=" matrix(1 0 0 1 0 0) " stroke-linecap="round" />
</g>
  <g transform="translate(48.76 70.75)">
   <text font-family="Amerika Sans" font-size="40" font-weight="normal" style="stroke: none; stroke-width: 1; stroke-dasharray: none; stroke-linecap: butt; stroke-linejoin: miter; stroke-miterlimit: 10; fill: #000000; fill-rule: nonzero; opacity: 1;" ><tspan x="0" y="8.98" fill="#000000"></tspan></text>
 </g>
  <g transform="translate(119.62 89.07) scale(0.87 1.09)">
   <text font-family="Lobster 13" font-size="40" font-weight="normal" style="stroke: none; stroke-width: 1; stroke-dasharray: none; stroke-linecap: butt; stroke-linejoin: miter; stroke-miterlimit: 10; fill: #ffffff; fill-rule: nonzero; opacity: 1;" ><tspan x="-107.3" y="8.98" style="stroke: none; stroke-width: 0; stroke-dasharray: none; stroke-linecap: butt; stroke-linejoin: miter; stroke-miterlimit: 4; fill: #ffffff; fill-rule: ; opacity: 1;">H</tspan><tspan x="-82.07" y="8.98" style="stroke: none; stroke-width: 0; stroke-dasharray: none; stroke-linecap: butt; stroke-linejoin: miter; stroke-miterlimit: 4; fill: #ffffff; fill-rule: ; opacity: 1;">i</tspan><tspan x="-71.33" y="8.98" style="stroke: none; stroke-width: 0; stroke-dasharray: none; stroke-linecap: butt; stroke-linejoin: miter; stroke-miterlimit: 4; fill: #ffffff; fill-rule: ; opacity: 1;">k</tspan><tspan x="-51.78" y="8.98" style="stroke: none; stroke-width: 0; stroke-dasharray: none; stroke-linecap: butt; stroke-linejoin: miter; stroke-miterlimit: 4; fill: #ffffff; fill-rule: ; opacity: 1;">e</tspan><tspan x="-37.58" y="8.98" style="stroke: none; stroke-width: 0; stroke-dasharray: none; stroke-linecap: butt; stroke-linejoin: miter; stroke-miterlimit: 4; fill: #ffffff; fill-rule: ; opacity: 1;">i</tspan><tspan x="-26.84" y="8.98" style="stroke: none; stroke-width: 0; stroke-dasharray: none; stroke-linecap: butt; stroke-linejoin: miter; stroke-miterlimit: 4; fill: #ffffff; fill-rule: ; opacity: 1;">t</tspan><tspan x="-15.16" y="8.98" style="stroke: none; stroke-width: 0; stroke-dasharray: none; stroke-linecap: butt; stroke-linejoin: miter; stroke-miterlimit: 4; fill: #ffffff; fill-rule: ; opacity: 1;"> </tspan><tspan x="-6.48" y="8.98" style="stroke: none; stroke-width: 0; stroke-dasharray: none; stroke-linecap: butt; stroke-linejoin: miter; stroke-miterlimit: 4; fill: #ffffff; fill-rule: ; opacity: 1;">H</tspan><tspan x="18.75" y="8.98" style="stroke: none; stroke-width: 0; stroke-dasharray: none; stroke-linecap: butt; stroke-linejoin: miter; stroke-miterlimit: 4; fill: #ffffff; fill-rule: ; opacity: 1;">a</tspan><tspan x="38.87" y="8.98" style="stroke: none; stroke-width: 0; stroke-dasharray: none; stroke-linecap: butt; stroke-linejoin: miter; stroke-miterlimit: 4; fill: #ffffff; fill-rule: ; opacity: 1;">w</tspan><tspan x="65.7" y="8.98" style="stroke: none; stroke-width: 0; stroke-dasharray: none; stroke-linecap: butt; stroke-linejoin: miter; stroke-miterlimit: 4; fill: #ffffff; fill-rule: ; opacity: 1;">a</tspan><tspan x="85.82" y="8.98" style="stroke: none; stroke-width: 0; stroke-dasharray: none; stroke-linecap: butt; stroke-linejoin: miter; stroke-miterlimit: 4; fill: #ffffff; fill-rule: ; opacity: 1;">i</tspan><tspan x="96.56" y="8.98" style="stroke: none; stroke-width: 0; stroke-dasharray: none; stroke-linecap: butt; stroke-linejoin: miter; stroke-miterlimit: 4; fill: #ffffff; fill-rule: ; opacity: 1;">i</tspan></text>
 </g>
</svg>